PathFileType	4	(X/Y/Z)	Patient4_TMGait_0pt5_01_right_31.trc.trc
DataRate	CameraRate	NumFrames	NumMarkers	Units	OrigDataRate	OrigDataStartFrame	OrigNumFrames
75.675675675676	75.675675675676	4	33	mm	75.675675675676	36	       141
Frame#	Time	L.ASIS			Sacral			L.Shoulder			Chest			R.Shoulder			Neck			R.ASIS			R.Thigh.Superior			R.Thigh.Lateral			R.Thigh.Inferior			R.Patella			L.Thigh.Superior			L.Thigh.Lateral			L.Thigh.Inferior			L.Patella			L.Shank.Superior			L.Shank.Lateral			L.Shank.Inferior			R.Shank.Superior			R.Shank.Lateral			R.Shank.Inferior			R.Heel			R.Midfoot.Superior			R.Midfoot.Lateral			R.Toe			L.Heel			L.Midfoot.Lateral			L.Midfoot.Superior			L.Toe			L.Elbow			L.Wrist			R.Elbow			R.Wrist			
		X1	Y1	Z1	X2	Y2	Z2	X3	Y3	Z3	X4	Y4	Z4	X5	Y5	Z5	X6	Y6	Z6	X7	Y7	Z7	X8	Y8	Z8	X9	Y9	Z9	X10	Y10	Z10	X11	Y11	Z11	X12	Y12	Z12	X13	Y13	Z13	X14	Y14	Z14	X15	Y15	Z15	X16	Y16	Z16	X17	Y17	Z17	X18	Y18	Z18	X19	Y19	Z19	X20	Y20	Z20	X21	Y21	Z21	X22	Y22	Z22	X23	Y23	Z23	X24	Y24	Z24	X25	Y25	Z25	X26	Y26	Z26	X27	Y27	Z27	X28	Y28	Z28	X29	Y29	Z29	X30	Y30	Z30	X31	Y31	Z31	X32	Y32	Z32	X33	Y33	Z33	

36	41.212500000000	881.815099077528	958.967734383722	347.832040438177	665.973451716409	999.380030052097	501.847649122463	840.890336653518	1429.336034081562	323.559757053211	938.083173251254	1361.806411034452	489.171830573723	844.870418410660	1434.980685516275	659.573236387308	835.377745479718	1491.494556957181	474.162680481499	892.082390369496	935.506772557027	621.785595107277	957.644208665545	750.489140760500	585.599980305802	893.636662062866	632.577553975783	648.075040208780	976.477085486644	589.836652092457	566.840517360150	989.980372855557	499.322352581853	574.326088217840	901.249510618398	733.223491438961	366.969917810936	795.666276364847	629.987067642516	306.078691671610	870.361323065850	537.753599580228	362.125859489318	858.046585591783	457.301587489013	362.907556742080	799.333933178670	398.070891000515	358.234402417046	668.358753241267	331.878811440622	309.265674706226	673.844493563501	205.206754904738	371.972848620918	964.913552103905	408.565606275563	583.698947974260	898.704490750105	302.150182458673	646.013798304122	945.979622327441	208.951362659613	585.994469536792	817.926774538059	42.563830238267	555.332651923513	987.325759378175	99.155288357186	596.306923950688	899.189718201460	36.553265315029	632.732020602526	1106.704070562962	49.240448663343	627.461586843151	497.334734006974	98.170818984791	409.415443144460	567.617439906221	67.500280430951	333.462983827608	664.091920661487	106.401512929404	356.426411126447	770.666540133335	34.927678150875	337.992206178064	845.546951404006	1076.021535662422	200.305452526766	1009.950037982498	873.120836063880	185.866215202004	757.205508386865	1098.185927080051	772.968154370644	835.162177562631	848.783234431486	783.660961802586	
37	41.225714285714	880.501657471362	959.383023420135	350.138404497192	666.072865681772	999.804692894178	506.014641857419	838.900879404581	1430.475391689385	326.996614874714	937.743520746834	1362.487031037904	491.442390438300	846.185792760132	1435.059092905349	662.866868225151	834.803121060503	1492.158877264724	477.886418240210	893.090886041582	936.298763679423	623.953382523908	956.811746532132	749.537650690831	588.448524054640	891.402320355150	632.557019036478	650.397423500486	973.487317840528	589.126090995754	568.772184257237	986.041203986254	498.605704341279	575.836040596351	905.611861294080	735.176461585326	369.339188022855	803.888189855938	629.295608024904	307.974314864419	881.715629674468	538.475047501225	363.444377223304	870.401006211511	456.534239672531	363.157431821254	809.051168462021	397.729941686751	358.884022857181	675.634103155496	336.705119988940	309.908752593755	676.612487158995	209.739679957299	371.847790957494	960.401974091061	408.038986474908	585.109479699201	893.690312255917	301.806717540079	647.106539817582	940.253791630235	208.580191255538	586.628448185835	811.441127523546	42.518309407720	555.477454976797	980.868705226289	99.106245385897	596.531951405236	892.693637497746	36.560159608212	633.004431815323	1100.231066304239	49.109047006501	627.630610494081	496.028029184866	111.327998401494	408.813508263425	564.505458550406	76.494400093100	333.110668894332	662.806405517812	110.241842982277	355.839390434895	764.388075571888	34.084800624500	338.092261574870	839.695553915595	1076.626265580379	205.075543607652	993.604428484272	865.599138531889	189.432937740046	766.819071224660	1095.983883110067	777.315165182964	855.464595431408	850.283140510612	787.532643884856	
38	41.238928571429	879.039841738491	959.636316596026	352.398833987735	665.993398640102	1000.192307073015	510.058612189212	836.755073314824	1431.478194145938	330.302590621582	937.315744970833	1363.046057634981	493.538230956150	847.511075944122	1435.052389295552	666.027574744450	834.161461809447	1492.724258406360	481.465490769204	893.852892678584	937.018813469354	626.064832042359	955.695451253779	748.526453968093	591.518131162202	888.778379534231	632.491835713741	652.801900143441	970.245199589010	588.391354808757	570.928570835103	981.805816171397	497.908589249888	577.580255665867	910.035674578958	737.365482612880	371.768829779774	812.594667571608	628.860725764433	309.685963823363	893.455257555949	539.673146703261	364.796359685823	883.208285402110	456.302278444186	363.561836687418	819.453128136485	397.810918260222	359.532802983645	683.832236836351	342.001757169834	310.449935096520	680.225830460495	214.960383757974	371.748023577978	955.653035001503	407.526397933209	586.679202134210	888.461196261294	301.429404096145	648.287336692666	934.420654428531	208.216037944746	587.354902613818	804.914976061837	42.502919398732	555.617353761532	974.396977186410	99.008504284577	596.776064636544	886.155861194664	36.540293474175	633.260201290939	1093.739167368088	48.840309950201	627.800714805824	495.806763750686	125.601002393817	408.229957031162	562.291531794253	86.652851670472	332.742098192934	662.286707678925	114.915012167197	355.340714216351	758.561941862414	33.281116696238	338.137079065614	833.529558714843	1077.157393502591	209.704525234972	976.570269032972	858.578873918031	193.090340825976	777.043415770988	1093.890405365465	781.615526182333	876.346916746257	852.390250682007	791.155168943198	
39	41.252142857143	877.442597606264	959.738403873565	354.609519142660	665.714335921821	1000.545928861242	513.937774384641	834.493946198211	1432.327075347995	333.452481735326	936.801967944890	1363.474987057338	495.458616555587	848.812474398322	1434.969617896137	669.035670008752	833.474554969518	1493.190441854286	484.862754686576	894.364873090501	937.668946207429	628.123612641427	954.339497822954	747.517594814452	594.694613894041	885.886017328200	632.406249779513	655.229392628476	966.847606811479	587.660877672628	573.227542262715	977.371439524323	497.240338183295	579.482714864004	914.377425754101	739.805515323068	374.257302218770	821.559539831872	628.776227778819	311.216141075075	905.295363365590	541.416241927506	366.181603625945	896.220902456873	456.690990796957	364.106988279692	830.326820630696	398.377756006777	360.176101065486	692.751897108620	347.683074633840	310.937742472930	684.642663508716	220.746378544989	371.709312400587	950.757711270653	407.033981806921	588.347726920309	883.104053082780	301.042872633606	649.531966016422	928.527277629747	207.862537061239	588.144452326502	798.352653663201	42.518777422493	555.760525623595	967.916131138987	98.868388879302	597.036120132666	879.581719777363	36.500935472725	633.501226185373	1087.233021335502	48.451644511255	627.972584676674	496.759743505481	140.497609788618	407.749006141130	561.140562408964	97.659899580873	332.408843193861	662.636905795410	120.343226238194	354.959365323742	753.500931330084	32.627053379127	338.089789312079	827.003622685947	1077.596066606005	214.175768238065	958.960447180947	852.144275363487	196.836802373078	787.836536820936	1091.950033311317	785.800739097670	897.693144222438	855.134556234046	794.480638376545	
